<svg xmlns="http://www.w3.org/2000/svg" xmlns:xlink="http://www.w3.org/1999/xlink" id="visual" viewBox="0 0 960 540" width="960" height="540" version="1.1"><rect x="0" y="0" width="960" height="540" fill="#ffffff"/><path d="M0 384L13.3 381.3C26.7 378.7 53.3 373.3 80 367.5C106.7 361.7 133.3 355.3 160 352.5C186.7 349.7 213.3 350.3 240 346C266.7 341.7 293.3 332.3 320 332.8C346.7 333.3 373.3 343.7 400 348.5C426.7 353.3 453.3 352.7 480 355.8C506.7 359 533.3 366 560 368.7C586.7 371.3 613.3 369.7 640 368.3C666.7 367 693.3 366 720 366.8C746.7 367.7 773.3 370.3 800 367.2C826.7 364 853.3 355 880 347.5C906.7 340 933.3 334 946.7 331L960 328L960 541L946.7 541C933.3 541 906.7 541 880 541C853.3 541 826.7 541 800 541C773.3 541 746.7 541 720 541C693.3 541 666.7 541 640 541C613.3 541 586.7 541 560 541C533.3 541 506.7 541 480 541C453.3 541 426.7 541 400 541C373.3 541 346.7 541 320 541C293.3 541 266.7 541 240 541C213.3 541 186.7 541 160 541C133.3 541 106.7 541 80 541C53.3 541 26.7 541 13.3 541L0 541Z" fill="#444444"/><path d="M0 360L13.3 365.3C26.7 370.7 53.3 381.3 80 388.2C106.7 395 133.3 398 160 394.5C186.7 391 213.3 381 240 377C266.7 373 293.3 375 320 374.8C346.7 374.7 373.3 372.3 400 372.8C426.7 373.3 453.3 376.7 480 384C506.7 391.3 533.3 402.7 560 406.5C586.7 410.3 613.3 406.7 640 397.2C666.7 387.7 693.3 372.3 720 366C746.7 359.7 773.3 362.3 800 367.3C826.7 372.3 853.3 379.7 880 388C906.7 396.3 933.3 405.7 946.7 410.3L960 415L960 541L946.7 541C933.3 541 906.7 541 880 541C853.3 541 826.7 541 800 541C773.3 541 746.7 541 720 541C693.3 541 666.7 541 640 541C613.3 541 586.7 541 560 541C533.3 541 506.7 541 480 541C453.3 541 426.7 541 400 541C373.3 541 346.7 541 320 541C293.3 541 266.7 541 240 541C213.3 541 186.7 541 160 541C133.3 541 106.7 541 80 541C53.3 541 26.7 541 13.3 541L0 541Z" fill="#373737"/><path d="M0 421L13.3 415.7C26.7 410.3 53.3 399.7 80 402.2C106.7 404.7 133.3 420.3 160 422.5C186.7 424.7 213.3 413.3 240 405.7C266.7 398 293.3 394 320 393.7C346.7 393.3 373.3 396.7 400 402.7C426.7 408.7 453.3 417.3 480 420.7C506.7 424 533.3 422 560 423C586.7 424 613.3 428 640 427.3C666.7 426.7 693.3 421.3 720 416.3C746.7 411.3 773.3 406.7 800 404.8C826.7 403 853.3 404 880 403.3C906.7 402.7 933.3 400.3 946.7 399.2L960 398L960 541L946.7 541C933.3 541 906.7 541 880 541C853.3 541 826.7 541 800 541C773.3 541 746.7 541 720 541C693.3 541 666.7 541 640 541C613.3 541 586.7 541 560 541C533.3 541 506.7 541 480 541C453.3 541 426.7 541 400 541C373.3 541 346.7 541 320 541C293.3 541 266.7 541 240 541C213.3 541 186.7 541 160 541C133.3 541 106.7 541 80 541C53.3 541 26.7 541 13.3 541L0 541Z" fill="#2a2a2a"/><path d="M0 422L13.3 424C26.7 426 53.3 430 80 434.7C106.7 439.3 133.3 444.7 160 447C186.7 449.3 213.3 448.7 240 444.7C266.7 440.7 293.3 433.3 320 435.5C346.7 437.7 373.3 449.3 400 452.3C426.7 455.3 453.3 449.7 480 450.2C506.7 450.7 533.3 457.3 560 455C586.7 452.7 613.3 441.3 640 437.2C666.7 433 693.3 436 720 437.3C746.7 438.7 773.3 438.3 800 436.7C826.7 435 853.3 432 880 431.3C906.7 430.7 933.3 432.3 946.7 433.2L960 434L960 541L946.7 541C933.3 541 906.7 541 880 541C853.3 541 826.7 541 800 541C773.3 541 746.7 541 720 541C693.3 541 666.7 541 640 541C613.3 541 586.7 541 560 541C533.3 541 506.7 541 480 541C453.3 541 426.7 541 400 541C373.3 541 346.7 541 320 541C293.3 541 266.7 541 240 541C213.3 541 186.7 541 160 541C133.3 541 106.7 541 80 541C53.3 541 26.7 541 13.3 541L0 541Z" fill="#1e1e1e"/><path d="M0 488L13.3 484.5C26.7 481 53.3 474 80 473.7C106.7 473.3 133.3 479.7 160 478.7C186.7 477.7 213.3 469.3 240 469.5C266.7 469.7 293.3 478.3 320 482.2C346.7 486 373.3 485 400 485.2C426.7 485.3 453.3 486.7 480 482.7C506.7 478.7 533.3 469.3 560 466.2C586.7 463 613.3 466 640 465C666.7 464 693.3 459 720 459.3C746.7 459.7 773.3 465.3 800 466.5C826.7 467.7 853.3 464.3 880 464.5C906.7 464.7 933.3 468.3 946.7 470.2L960 472L960 541L946.7 541C933.3 541 906.7 541 880 541C853.3 541 826.7 541 800 541C773.3 541 746.7 541 720 541C693.3 541 666.7 541 640 541C613.3 541 586.7 541 560 541C533.3 541 506.7 541 480 541C453.3 541 426.7 541 400 541C373.3 541 346.7 541 320 541C293.3 541 266.7 541 240 541C213.3 541 186.7 541 160 541C133.3 541 106.7 541 80 541C53.3 541 26.7 541 13.3 541L0 541Z" fill="#131313"/><path d="M0 487L13.3 488C26.7 489 53.3 491 80 492C106.7 493 133.3 493 160 496.5C186.7 500 213.3 507 240 506.7C266.7 506.3 293.3 498.7 320 495.8C346.7 493 373.3 495 400 496.5C426.7 498 453.3 499 480 500.7C506.7 502.3 533.3 504.7 560 503.5C586.7 502.3 613.3 497.7 640 497.8C666.7 498 693.3 503 720 506.3C746.7 509.7 773.3 511.3 800 510.5C826.7 509.7 853.3 506.3 880 503.8C906.7 501.3 933.3 499.7 946.7 498.8L960 498L960 541L946.7 541C933.3 541 906.7 541 880 541C853.3 541 826.7 541 800 541C773.3 541 746.7 541 720 541C693.3 541 666.7 541 640 541C613.3 541 586.7 541 560 541C533.3 541 506.7 541 480 541C453.3 541 426.7 541 400 541C373.3 541 346.7 541 320 541C293.3 541 266.7 541 240 541C213.3 541 186.7 541 160 541C133.3 541 106.7 541 80 541C53.3 541 26.7 541 13.3 541L0 541Z" fill="#000000"/></svg>